<mxfile host="app.diagrams.net" modified="2022-02-18T13:37:49.365Z" agent="5.0 (Macintosh; Intel Mac OS X 10_15_7) AppleWebKit/605.1.15 (KHTML, like Gecko) Version/14.1.1 Safari/605.1.15" etag="4koNu3MgKc1vgzTM1IZt" version="16.6.1" type="github">
  <diagram id="dfoUmN1t4xgU7yQNFgz5" name="Page-1">
    <mxGraphModel dx="946" dy="1727" grid="1" gridSize="10" guides="1" tooltips="1" connect="1" arrows="1" fold="1" page="1" pageScale="1" pageWidth="827" pageHeight="1169" math="0" shadow="0">
      <root>
        <mxCell id="0" />
        <mxCell id="1" parent="0" />
        <mxCell id="UE13zOpYgZUYeyyKfzCY-1" value="&lt;font color=&quot;#333333&quot; face=&quot;helvetica neue, helvetica, arial, sans-serif&quot;&gt;&lt;span style=&quot;font-size: 14px;&quot;&gt;节点 A&lt;/span&gt;&lt;/font&gt;" style="rounded=1;whiteSpace=wrap;html=1;labelBackgroundColor=none;fontSize=16;verticalAlign=bottom;fillColor=#f5f5f5;strokeColor=#666666;fontColor=#333333;" vertex="1" parent="1">
          <mxGeometry x="60" y="250" width="170" height="120" as="geometry" />
        </mxCell>
        <mxCell id="UE13zOpYgZUYeyyKfzCY-2" value="&lt;span style=&quot;color: rgb(51, 51, 51); font-family: &amp;quot;helvetica neue&amp;quot;, helvetica, arial, sans-serif; font-size: 14px;&quot;&gt;key-01 数据&lt;/span&gt;" style="rounded=1;whiteSpace=wrap;html=1;labelBackgroundColor=none;fontSize=16;fillColor=#dae8fc;strokeColor=#6c8ebf;" vertex="1" parent="1">
          <mxGeometry x="80" y="280" width="120" height="60" as="geometry" />
        </mxCell>
        <mxCell id="UE13zOpYgZUYeyyKfzCY-3" value="&lt;font color=&quot;#333333&quot; face=&quot;helvetica neue, helvetica, arial, sans-serif&quot;&gt;&lt;span style=&quot;font-size: 14px;&quot;&gt;节点 B&lt;/span&gt;&lt;/font&gt;" style="rounded=1;whiteSpace=wrap;html=1;labelBackgroundColor=none;fontSize=16;fontColor=#333333;verticalAlign=bottom;fillColor=#f5f5f5;strokeColor=#666666;" vertex="1" parent="1">
          <mxGeometry x="270" y="250" width="170" height="120" as="geometry" />
        </mxCell>
        <mxCell id="UE13zOpYgZUYeyyKfzCY-4" value="&lt;span style=&quot;color: rgb(51, 51, 51); font-family: &amp;quot;helvetica neue&amp;quot;, helvetica, arial, sans-serif; font-size: 14px;&quot;&gt;key-02 数据&lt;/span&gt;" style="rounded=1;whiteSpace=wrap;html=1;labelBackgroundColor=none;fontSize=16;fillColor=#dae8fc;strokeColor=#6c8ebf;" vertex="1" parent="1">
          <mxGeometry x="290" y="280" width="120" height="60" as="geometry" />
        </mxCell>
        <mxCell id="UE13zOpYgZUYeyyKfzCY-5" value="&lt;font color=&quot;#333333&quot; face=&quot;helvetica neue, helvetica, arial, sans-serif&quot;&gt;&lt;span style=&quot;font-size: 14px;&quot;&gt;节点 C&lt;/span&gt;&lt;/font&gt;" style="rounded=1;whiteSpace=wrap;html=1;labelBackgroundColor=none;fontSize=16;fontColor=#333333;verticalAlign=bottom;fillColor=#f5f5f5;strokeColor=#666666;" vertex="1" parent="1">
          <mxGeometry x="480" y="250" width="170" height="120" as="geometry" />
        </mxCell>
        <mxCell id="UE13zOpYgZUYeyyKfzCY-6" value="&lt;span style=&quot;color: rgb(51, 51, 51); font-family: &amp;quot;helvetica neue&amp;quot;, helvetica, arial, sans-serif; font-size: 14px;&quot;&gt;key-03 数据&lt;/span&gt;" style="rounded=1;whiteSpace=wrap;html=1;labelBackgroundColor=none;fontSize=16;fillColor=#dae8fc;strokeColor=#6c8ebf;" vertex="1" parent="1">
          <mxGeometry x="500" y="280" width="120" height="60" as="geometry" />
        </mxCell>
        <mxCell id="UE13zOpYgZUYeyyKfzCY-7" value="&lt;span style=&quot;color: rgb(51, 51, 51); font-family: &amp;quot;helvetica neue&amp;quot;, helvetica, arial, sans-serif; font-size: 14px;&quot;&gt;hash( key-01) = 6&lt;/span&gt;" style="rounded=0;whiteSpace=wrap;html=1;labelBackgroundColor=none;fontSize=16;fillColor=#fff2cc;strokeColor=#d6b656;" vertex="1" parent="1">
          <mxGeometry x="85" y="-40" width="120" height="60" as="geometry" />
        </mxCell>
        <mxCell id="UE13zOpYgZUYeyyKfzCY-8" value="&lt;span style=&quot;color: rgb(51, 51, 51); font-family: &amp;quot;helvetica neue&amp;quot;, helvetica, arial, sans-serif; font-size: 14px;&quot;&gt;hash( key-02) = 7&lt;/span&gt;" style="rounded=0;whiteSpace=wrap;html=1;labelBackgroundColor=none;fontSize=16;fillColor=#fff2cc;strokeColor=#d6b656;" vertex="1" parent="1">
          <mxGeometry x="298.5" y="-40" width="120" height="60" as="geometry" />
        </mxCell>
        <mxCell id="UE13zOpYgZUYeyyKfzCY-9" value="&lt;span style=&quot;color: rgb(51, 51, 51); font-family: &amp;quot;helvetica neue&amp;quot;, helvetica, arial, sans-serif; font-size: 14px;&quot;&gt;hash(key-03) = 8&lt;/span&gt;" style="rounded=0;whiteSpace=wrap;html=1;labelBackgroundColor=none;fontSize=16;fillColor=#fff2cc;strokeColor=#d6b656;" vertex="1" parent="1">
          <mxGeometry x="503.75" y="-40" width="120" height="60" as="geometry" />
        </mxCell>
        <mxCell id="UE13zOpYgZUYeyyKfzCY-10" value="" style="shape=flexArrow;endArrow=classic;html=1;rounded=0;fontSize=16;fontColor=default;" edge="1" parent="1">
          <mxGeometry width="50" height="50" relative="1" as="geometry">
            <mxPoint x="144.5" y="40" as="sourcePoint" />
            <mxPoint x="144.5" y="110" as="targetPoint" />
          </mxGeometry>
        </mxCell>
        <mxCell id="UE13zOpYgZUYeyyKfzCY-11" value="6 % 4" style="text;html=1;align=center;verticalAlign=middle;resizable=0;points=[];autosize=1;strokeColor=none;fillColor=none;fontSize=16;fontColor=default;" vertex="1" parent="1">
          <mxGeometry x="150" y="60" width="60" height="20" as="geometry" />
        </mxCell>
        <mxCell id="UE13zOpYgZUYeyyKfzCY-12" style="edgeStyle=none;rounded=0;orthogonalLoop=1;jettySize=auto;html=1;entryX=0.5;entryY=0;entryDx=0;entryDy=0;fontSize=16;fontColor=default;exitX=0.5;exitY=1;exitDx=0;exitDy=0;" edge="1" parent="1" source="UE13zOpYgZUYeyyKfzCY-13" target="UE13zOpYgZUYeyyKfzCY-5">
          <mxGeometry relative="1" as="geometry" />
        </mxCell>
        <mxCell id="UE13zOpYgZUYeyyKfzCY-13" value="2" style="rounded=0;whiteSpace=wrap;html=1;labelBackgroundColor=none;fontSize=16;fillColor=#d5e8d4;strokeColor=#82b366;" vertex="1" parent="1">
          <mxGeometry x="87.5" y="120" width="115" height="50" as="geometry" />
        </mxCell>
        <mxCell id="UE13zOpYgZUYeyyKfzCY-14" value="" style="shape=flexArrow;endArrow=classic;html=1;rounded=0;fontSize=16;fontColor=default;" edge="1" parent="1">
          <mxGeometry width="50" height="50" relative="1" as="geometry">
            <mxPoint x="350.75" y="40" as="sourcePoint" />
            <mxPoint x="350.75" y="110" as="targetPoint" />
          </mxGeometry>
        </mxCell>
        <mxCell id="UE13zOpYgZUYeyyKfzCY-15" value="7 % 4" style="text;html=1;align=center;verticalAlign=middle;resizable=0;points=[];autosize=1;strokeColor=none;fillColor=none;fontSize=16;fontColor=default;" vertex="1" parent="1">
          <mxGeometry x="356.25" y="60" width="60" height="20" as="geometry" />
        </mxCell>
        <mxCell id="UE13zOpYgZUYeyyKfzCY-16" style="edgeStyle=none;rounded=0;orthogonalLoop=1;jettySize=auto;html=1;entryX=0.5;entryY=0;entryDx=0;entryDy=0;fontSize=16;fontColor=default;exitX=0.5;exitY=1;exitDx=0;exitDy=0;" edge="1" parent="1" source="UE13zOpYgZUYeyyKfzCY-17" target="UE13zOpYgZUYeyyKfzCY-22">
          <mxGeometry relative="1" as="geometry" />
        </mxCell>
        <mxCell id="UE13zOpYgZUYeyyKfzCY-17" value="3" style="rounded=0;whiteSpace=wrap;html=1;labelBackgroundColor=none;fontSize=16;fillColor=#d5e8d4;strokeColor=#82b366;" vertex="1" parent="1">
          <mxGeometry x="298.5" y="120" width="115" height="50" as="geometry" />
        </mxCell>
        <mxCell id="UE13zOpYgZUYeyyKfzCY-18" value="" style="shape=flexArrow;endArrow=classic;html=1;rounded=0;fontSize=16;fontColor=default;" edge="1" parent="1">
          <mxGeometry width="50" height="50" relative="1" as="geometry">
            <mxPoint x="560.75" y="40" as="sourcePoint" />
            <mxPoint x="560.75" y="110" as="targetPoint" />
          </mxGeometry>
        </mxCell>
        <mxCell id="UE13zOpYgZUYeyyKfzCY-19" value="8 % 4" style="text;html=1;align=center;verticalAlign=middle;resizable=0;points=[];autosize=1;strokeColor=none;fillColor=none;fontSize=16;fontColor=default;" vertex="1" parent="1">
          <mxGeometry x="566.25" y="60" width="60" height="20" as="geometry" />
        </mxCell>
        <mxCell id="UE13zOpYgZUYeyyKfzCY-20" style="edgeStyle=none;rounded=0;orthogonalLoop=1;jettySize=auto;html=1;entryX=0.5;entryY=0;entryDx=0;entryDy=0;fontSize=16;fontColor=default;" edge="1" parent="1" source="UE13zOpYgZUYeyyKfzCY-21" target="UE13zOpYgZUYeyyKfzCY-1">
          <mxGeometry relative="1" as="geometry" />
        </mxCell>
        <mxCell id="UE13zOpYgZUYeyyKfzCY-21" value="0" style="rounded=0;whiteSpace=wrap;html=1;labelBackgroundColor=none;fontSize=16;fillColor=#d5e8d4;strokeColor=#82b366;" vertex="1" parent="1">
          <mxGeometry x="508.75" y="120" width="115" height="50" as="geometry" />
        </mxCell>
        <mxCell id="UE13zOpYgZUYeyyKfzCY-22" value="&lt;font color=&quot;#333333&quot; face=&quot;helvetica neue, helvetica, arial, sans-serif&quot;&gt;&lt;span style=&quot;font-size: 14px&quot;&gt;新节点 D&lt;/span&gt;&lt;/font&gt;" style="rounded=1;whiteSpace=wrap;html=1;labelBackgroundColor=none;fontSize=16;verticalAlign=middle;fillColor=#ffe6cc;strokeColor=#d79b00;" vertex="1" parent="1">
          <mxGeometry x="700" y="250" width="170" height="120" as="geometry" />
        </mxCell>
        <mxCell id="UE13zOpYgZUYeyyKfzCY-24" value="查询不到数据" style="text;html=1;align=center;verticalAlign=middle;resizable=0;points=[];autosize=1;strokeColor=#B20000;fillColor=#e51400;fontColor=#ffffff;" vertex="1" parent="1">
          <mxGeometry x="416.25" y="220" width="90" height="20" as="geometry" />
        </mxCell>
        <mxCell id="UE13zOpYgZUYeyyKfzCY-25" value="查询不到数据" style="text;html=1;align=center;verticalAlign=middle;resizable=0;points=[];autosize=1;strokeColor=#B20000;fillColor=#e51400;fontColor=#ffffff;" vertex="1" parent="1">
          <mxGeometry x="590" y="210" width="90" height="20" as="geometry" />
        </mxCell>
        <mxCell id="UE13zOpYgZUYeyyKfzCY-26" value="查询不到数据" style="text;html=1;align=center;verticalAlign=middle;resizable=0;points=[];autosize=1;strokeColor=#B20000;fillColor=#e51400;fontColor=#ffffff;" vertex="1" parent="1">
          <mxGeometry x="220" y="210" width="90" height="20" as="geometry" />
        </mxCell>
      </root>
    </mxGraphModel>
  </diagram>
</mxfile>
